<?xml version="1.0" encoding="utf-8"?>
<svg width="110px" height="56px" viewBox="0 0 110 56" version="1.1" xmlns:xlink="http://www.w3.org/1999/xlink" xmlns="http://www.w3.org/2000/svg">
  <defs>
    <path d="M0 0L110 0L110 31L0 31L0 0Z" id="path_1" />
    <path d="M0 0L77 0L77 15L0 15L0 0Z" id="path_2" />
    <clipPath id="mask_1">
      <use xlink:href="#path_1" />
    </clipPath>
    <clipPath id="mask_2">
      <use xlink:href="#path_2" />
    </clipPath>
  </defs>
  <g id="Group-3-Copy">
    <g id="Logo_CARTIER_Black" transform="translate(0 25)">
      <path d="M0.137032 0.274986C0.131106 0.286225 0.126662 0.293718 0.124069 0.298963C0.165179 0.22441 0.205918 0.149856 0.246287 0.0756774C0.246287 0.0756774 0.172586 0.209799 0.137032 0.274986" transform="translate(68.300804 23.05837)" id="Fill-1" fill="#1A1919" fill-rule="evenodd" stroke="none" />
      <path d="M1.37143 2.77571C2.12881 2.77571 2.7436 2.15418 2.7436 1.38804C2.7436 0.621529 2.12881 0 1.37143 0C0.613681 0 0 0.621529 0 1.38804C0 2.15418 0.613681 2.77571 1.37143 2.77571" transform="translate(75.595345 9.462295)" id="Fill-2" fill="#1A1919" fill-rule="evenodd" stroke="none" />
      <g id="Group-6">
        <path d="M0 0L110 0L110 31L0 31L0 0Z" id="Clip-4" fill="none" fill-rule="evenodd" stroke="none" />
        <g clip-path="url(#mask_1)">
          <path d="M0.202705 0.112956C0.190112 0.142178 0.181594 0.163533 0.179742 0.173648C0.153077 0.319758 0.174928 0.273302 0.202705 0.112956" transform="translate(36.570747 18.484571)" id="Fill-3" fill="#1A1919" fill-rule="evenodd" stroke="none" />
          <path d="M30.2371 27.6415C29.316 28.4417 28.1776 29.0834 28.1776 29.0834C23.5192 31.4572 22.4667 28.862 22.9781 26.4786C23.42 24.4128 25.221 21.3861 26.7047 19.5417C28.0465 18.0286 29.4527 16.8511 31.2682 15.9508C35.1321 14.0341 37.4998 16.4412 35.8951 19.877C34.8588 22.0957 33.1374 25.1239 30.2371 27.6415ZM88.719 15.6773C89.5768 15.762 89.9879 16.2153 89.9068 17.4329C89.639 20.0475 85.821 24.3457 80.9686 24.2041C82.643 20.1797 86.6843 15.5016 88.719 15.6773ZM108.026 15.4806C105.928 15.4263 101.79 18.7962 101.299 19.2967L103.445 15.5593L100.205 15.5702C96.0343 22.7322 87.3265 29.6754 83.44 29.8147C79.9305 30.0721 79.6823 27.5396 80.8345 24.5495C80.8334 24.5492 80.8315 24.5495 80.8301 24.5492C80.8315 24.5495 80.8334 24.5492 80.8345 24.5495L80.8345 24.5814C85.8036 25.0909 94.5118 19.9433 91.7845 16.116C89.4383 13.7599 83.1455 16.2404 79.1235 21.6543L78.8457 22.0661L78.2531 22.9491C76.8291 24.8714 73.9296 27.6325 73.9296 27.6325C70.1779 31.3579 68.4813 29.1794 70.0697 26.4909L76.2599 15.626L73.4592 15.626C72.6915 16.6896 68.9487 23.6553 62.8559 28.0142C59.4101 30.679 56.7213 29.5345 59.1161 26.062L65.1573 15.626L68.5268 15.614L68.9698 15.1487L65.5266 15.1476L69.1749 8.67453L66.121 8.68502C64.4977 11.4637 60.7075 17.9585 56.8954 19.6017C57.5787 18.6864 57.3276 17.4707 57.3276 17.4707C57.0447 16.0673 55.5014 15.9317 55.5014 15.9317C55.5014 15.9317 53.31 15.596 50.7886 17.8521L52.1378 15.6009L49.0661 15.6117C46.3799 20.4386 39.2327 30.7203 35.3421 29.7342C34.291 29.2704 34.2251 27.9284 35.3295 26.114L41.4952 15.5754L38.4402 15.587C38.012 16.2273 36.9602 18.2129 36.7958 18.5976C36.768 18.758 36.7461 18.8044 36.7728 18.6583C36.7747 18.6482 36.7832 18.6269 36.7958 18.5976C36.901 17.9727 37.0758 15.5252 34.701 15.0445C34.1792 14.9322 33.804 14.8999 33.2833 14.8939C30.6638 14.8625 28.0187 16.2483 25.4229 18.5714C23.5944 20.206 21.8645 22.3939 20.3934 25.1066C14.1203 30.9334 7.67314 31.2687 5.5673 29.0909C3.33219 26.7798 2.45852 22.0174 6.59541 13.9824C8.03832 11.8552 13.4677 2.81703 21.266 0.729156C27.0998 -0.831971 29.4786 2.4791 29.6771 6.34839C29.6771 6.34839 31.4419 2.98974 33.4222 0.905237C32.2133 1.43011 29.5264 2.05913 28.2716 1.29786C24.501 -1.1373 17.2195 -0.78514 7.90165 7.98594C-0.0913825 16.1906 -5.77525 32.1274 10.0779 30.8851C15.6903 30.1793 20.396 25.6686 20.396 25.6686C19.662 28.4076 20.856 30.4842 23.1663 30.8866C24.0166 31.0466 25.2295 30.8199 26.2554 30.4232C27.1139 30.0646 28.9242 29.3285 31.2923 27.4399C30.5623 30.4385 35.1466 34.9166 43.594 24.3379L39.6779 30.7184L43.2433 30.7056C43.2433 30.7056 49.2072 20.0733 50.283 18.9775C52.6015 15.8485 56.8572 15.2716 56.8032 17.4569C56.3328 17.2156 55.9191 17.1519 55.5669 17.2107C54.5488 17.3681 54.0948 18.6703 54.2996 19.5575C54.4118 19.8598 54.5833 20.1749 55.0547 20.3959C55.0547 20.3959 57.0495 21.7933 61.8408 15.7223L61.1512 16.9732C61.1512 16.9732 56.3121 25.4045 55.6928 26.6041C53.2415 31.3568 59.0427 31.8045 62.5189 28.7957C62.5189 28.7957 65.3499 26.6951 68.5694 23.1342C68.529 23.2083 68.4883 23.2829 68.4472 23.3574C68.445 23.3619 68.4439 23.3642 68.4442 23.3642C68.4439 23.3642 68.445 23.3619 68.4472 23.3574C66.7902 26.383 64.954 29.4757 67.3076 30.8075C67.9876 31.117 69.8079 31.329 72.0852 29.6982C72.0852 29.6982 75.7214 26.67 77.6394 24.215C76.8269 26.123 76.0784 29.2236 79.3705 30.6405C81.2234 31.2268 82.7337 30.8469 84.5829 30.2164C90.4067 28.2922 97.8446 19.668 97.8446 19.668C97.8446 19.668 91.5489 30.2722 91.3423 30.6603L94.5503 30.6487C94.5503 30.6487 99.0894 22.8618 100.01 21.5483C102.496 17.6067 107.871 14.9044 108.43 16.2745C106.439 15.877 105.95 18.8539 107.516 19.4616C109.987 20.4203 111.405 15.6563 108.026 15.4806L108.026 15.4806Z" transform="translate(-0.022317007 -0.000105993466)" id="Fill-5" fill="#1A1919" fill-rule="evenodd" stroke="none" />
        </g>
      </g>
      <path d="M0.130551 0.286975C0.166105 0.221787 0.239806 0.0876659 0.239806 0.0876659C0.178697 0.19781 0.148328 0.254381 0.130551 0.286975" transform="translate(68.30728 23.046383)" id="Fill-7" fill="#1A1919" fill-rule="evenodd" stroke="none" />
    </g>
    <g id="Logo_TANK_1LINE_Black" transform="translate(16 0)">
      <path d="M0 0L77 0L77 15L0 15L0 0Z" id="Clip-2" fill="none" fill-rule="evenodd" stroke="none" />
      <g clip-path="url(#mask_2)">
        <path d="M6.30496 2.85425L0 2.85425L0 0L15.8264 0L15.8264 2.85425L9.52141 2.85425L9.52141 15.0224L6.30496 15.0224L6.30496 2.85425" id="Fill-1" fill="#1A1919" fill-rule="evenodd" stroke="none" />
        <path d="M11.4173 8.15479L9.60683 2.85425L7.45538 2.85425L5.66596 8.15479L11.4173 8.15479ZM12.3973 11.0094L4.70746 11.0094L3.36548 15.0224L0 15.0224L5.2614 0L11.8004 0L17.0618 15.0224L13.7818 15.0224L12.3973 11.0094L12.3973 11.0094Z" transform="translate(18.424532 0)" id="Fill-3" fill="#1A1919" fill-rule="evenodd" stroke="none" />
        <path d="M0 0L5.92148 0L11.0549 4.72119L11.1618 4.72119L11.1618 0L14.3779 0L14.3779 15.0224L11.1618 15.0224L11.1618 9.2494L4.77143 3.24023L3.21645 3.24023L3.21645 15.0224L0 15.0224L0 0" transform="translate(41.024017 0)" id="Fill-4" fill="#1A1919" fill-rule="evenodd" stroke="none" />
        <path d="M7.36996 9.27063L3.21608 9.27063L3.21608 15.0224L0 15.0224L0 0L3.21608 0L3.21608 6.41638L6.51759 6.41638L10.8419 0L14.6759 0L9.81946 7.06055L14.7824 15.0224L10.9484 15.0224L7.36996 9.27063" transform="translate(62.217552 0)" id="Fill-5" fill="#1A1919" fill-rule="evenodd" stroke="none" />
      </g>
    </g>
  </g>
</svg>