<?xml version="1.0" standalone="no"?>
<!DOCTYPE svg PUBLIC "-//W3C//DTD SVG 20010904//EN"
 "http://www.w3.org/TR/2001/REC-SVG-20010904/DTD/svg10.dtd">
<svg version="1.0" xmlns="http://www.w3.org/2000/svg"
 width="1760.000000pt" height="1760.000000pt" viewBox="0 0 1760.000000 1760.000000"
 preserveAspectRatio="xMidYMid meet">
<metadata>
Created by potrace 1.14, written by Peter Selinger 2001-2017
</metadata>
<g transform="translate(0.000000,1760.000000) scale(0.100000,-0.100000)"
fill="#000000" stroke="none">
<path d="M2564 13253 c1 -16 -1 -38 -6 -50 -4 -13 -4 -23 0 -23 9 0 8 -92 -2
-108 -4 -7 -3 -12 1 -12 5 0 7 -26 6 -57 -2 -32 -3 -64 -3 -70 1 -73 5 -103
14 -104 6 -1 232 -2 501 -3 l490 -2 3 -971 2 -972 39 1 c22 0 44 -3 50 -6 6
-4 11 -4 11 1 0 9 61 9 76 1 5 -3 18 -2 29 2 11 4 30 4 42 -1 12 -5 25 -4 27
0 3 5 20 6 38 2 18 -4 52 -4 76 -1 23 4 42 3 42 -2 0 -5 5 -6 11 -3 6 4 25 7
42 7 l32 0 0 971 0 971 503 0 502 0 1 28 c0 15 0 111 0 213 0 102 0 192 0 200
-1 13 -148 15 -1265 15 l-1265 0 3 -27z"/>
<path d="M6344 13263 c-3 -10 -10 -27 -15 -38 -4 -11 -17 -49 -29 -85 -11 -36
-24 -74 -29 -85 -8 -16 -51 -142 -56 -165 -1 -3 -5 -12 -8 -20 -17 -39 -59
-157 -61 -170 -2 -8 -8 -28 -15 -43 -6 -16 -11 -32 -11 -37 0 -5 -6 -24 -14
-42 -8 -18 -30 -78 -49 -133 -85 -244 -119 -341 -124 -355 -4 -8 -7 -18 -8
-22 -2 -5 -4 -10 -5 -13 -1 -3 -3 -8 -4 -12 -2 -12 -137 -395 -146 -418 -5
-11 -31 -85 -59 -165 -27 -80 -54 -158 -61 -175 -6 -16 -13 -37 -15 -45 -11
-45 -81 -236 -90 -242 -5 -4 -7 -8 -3 -8 3 0 -2 -24 -13 -52 -10 -29 -19 -54
-19 -55 0 -1 8 -2 18 -2 9 0 38 0 65 0 26 0 54 0 62 -1 23 0 41 0 90 0 66 1
133 1 150 0 33 -1 42 0 81 2 22 1 45 -2 52 -5 16 -10 20 1 106 263 42 129 81
244 86 255 5 11 12 31 15 45 20 74 23 77 94 76 36 -1 72 3 79 8 6 4 12 5 12 0
0 -5 231 -9 522 -8 288 0 530 -1 539 -3 10 -3 25 -33 39 -76 13 -40 27 -78 33
-84 5 -7 7 -13 4 -13 -4 0 1 -19 9 -42 9 -24 40 -115 70 -203 80 -235 69 -214
120 -212 24 1 44 -1 44 -5 0 -4 12 -3 28 1 15 4 39 4 55 0 15 -4 27 -4 27 1 0
4 18 4 40 0 22 -4 40 -5 40 -1 0 7 63 6 76 -1 5 -3 18 -2 29 2 11 4 32 4 48
-1 15 -4 27 -4 27 0 0 4 15 5 34 3 l34 -4 -55 159 c-30 87 -58 167 -63 178 -9
21 -64 179 -106 305 -14 41 -30 84 -34 95 -5 11 -21 55 -35 99 -14 43 -32 91
-41 107 -8 16 -12 29 -10 29 3 0 -6 29 -19 64 -14 36 -33 91 -44 123 -11 32
-45 130 -76 218 -31 88 -65 185 -75 215 -10 30 -42 120 -70 200 -28 80 -53
150 -54 155 -2 6 -6 17 -9 25 -10 23 -116 328 -133 383 l-16 47 -524 0 c-491
0 -525 -1 -530 -17z m699 -444 c3 -2 17 -40 32 -84 15 -44 29 -87 32 -95 3 -8
7 -19 9 -25 5 -19 115 -340 123 -360 5 -11 15 -40 22 -65 7 -25 15 -49 18 -55
3 -5 6 -14 8 -20 1 -5 11 -36 23 -68 12 -32 19 -61 15 -65 -12 -12 -905 -8
-905 4 0 6 7 28 15 48 8 20 15 38 15 41 1 6 7 28 17 53 3 9 7 22 9 27 1 6 41
125 89 265 47 140 95 284 107 320 11 36 25 70 32 75 13 10 331 14 339 4z"/>
<path d="M9124 13190 c1 -56 -2 -90 -9 -90 -7 0 -7 -3 0 -8 14 -10 14 -332 0
-332 -7 0 -7 -3 0 -8 6 -4 10 -138 10 -365 0 -231 -4 -357 -10 -357 -7 0 -7
-3 0 -8 13 -9 14 -195 0 -204 -6 -5 -6 -8 0 -8 14 0 14 -322 0 -332 -6 -5 -6
-8 0 -8 12 0 13 -249 2 -268 -5 -6 -5 -12 0 -12 4 0 8 -69 8 -152 l0 -153 35
-2 c34 -3 42 -3 75 -3 8 1 35 1 60 1 25 0 52 0 60 -1 25 0 48 0 95 1 25 0 50
0 55 -1 6 -1 15 -2 20 0 6 1 33 2 60 3 39 2 50 6 50 19 0 9 3 19 6 23 4 3 4
20 0 38 -4 18 -5 43 -4 57 2 14 3 39 2 55 -1 17 -1 50 0 75 1 48 1 65 -3 210
-1 52 2 103 6 112 5 9 5 19 1 21 -5 3 -7 47 -5 99 1 51 2 107 1 123 -1 17 -1
50 0 75 1 48 1 65 -3 210 -1 52 2 103 6 112 5 9 5 19 1 21 -5 3 -7 47 -5 99 1
51 2 107 1 123 -1 17 -1 50 0 75 0 25 0 61 0 80 0 19 -1 83 -2 141 -1 64 2
106 8 107 6 0 61 2 124 3 l113 2 52 -46 c28 -25 83 -77 122 -114 40 -37 120
-113 179 -168 59 -55 133 -125 165 -155 52 -49 235 -222 359 -338 25 -24 70
-66 99 -94 l52 -50 0 -453 c0 -303 3 -456 10 -460 10 -6 39 -7 136 -3 22 1 44
-1 50 -4 5 -3 18 -2 29 2 11 4 32 4 48 -1 15 -4 27 -5 27 -1 0 6 65 7 80 2 3
-2 10 -1 15 0 6 1 33 2 62 1 32 0 53 4 55 12 2 7 4 545 4 1197 l-1 1185 -257
3 -258 2 0 -375 c0 -293 -3 -375 -12 -375 -7 0 -40 26 -73 56 -83 78 -165 153
-280 259 -54 50 -118 109 -142 131 -24 23 -78 72 -120 110 -42 38 -106 97
-142 131 l-66 62 -476 1 -476 0 1 -90z"/>
<path d="M12517 13273 c-2 -5 -3 -543 -3 -1197 1 -1181 1 -1189 21 -1193 33
-6 114 -5 125 2 6 3 10 2 10 -4 0 -6 11 -6 29 -1 16 4 32 6 35 3 7 -7 174 -6
186 2 5 3 10 1 10 -5 0 -6 4 -9 9 -6 5 4 28 7 50 8 l41 1 0 457 0 456 332 0
332 -1 98 -155 c54 -85 103 -164 108 -175 5 -11 36 -61 67 -110 32 -50 64
-103 72 -118 8 -15 18 -27 23 -27 4 0 8 -5 8 -11 0 -6 12 -29 28 -52 15 -23
32 -51 39 -62 78 -128 116 -191 118 -193 7 -7 74 -20 79 -15 7 7 161 7 172 1
5 -3 18 -2 29 2 11 4 32 4 48 -1 15 -4 27 -5 27 -1 0 8 68 8 76 -1 3 -3 18 -2
32 2 15 4 39 4 55 0 15 -4 27 -4 27 0 0 4 16 5 35 3 19 -2 35 -2 35 1 0 7 -22
46 -60 108 -19 30 -40 64 -47 75 -6 10 -40 64 -75 119 -35 55 -67 108 -73 118
-5 9 -36 58 -67 108 -32 50 -58 95 -58 100 0 5 -4 9 -10 9 -5 0 -10 5 -10 11
0 5 -17 36 -37 67 -21 32 -43 66 -50 77 -6 11 -69 112 -140 224 -172 275 -158
245 -132 289 13 20 26 39 29 42 3 3 28 39 55 80 28 41 53 77 56 80 3 3 48 68
100 145 51 77 96 142 99 145 3 3 34 48 70 100 35 52 68 97 72 98 4 2 8 7 8 12
0 9 159 244 184 273 9 9 16 20 16 25 0 4 14 25 31 47 l30 40 -303 3 -302 2
-23 -24 c-13 -14 -23 -27 -23 -30 0 -6 -308 -465 -329 -491 -10 -11 -23 -32
-31 -47 -7 -15 -21 -37 -32 -47 -10 -11 -18 -25 -18 -31 0 -5 -3 -10 -8 -10
-4 0 -13 -12 -19 -27 -7 -16 -24 -40 -38 -55 -14 -15 -25 -32 -25 -38 0 -5 -4
-10 -10 -10 -5 0 -10 -6 -10 -14 0 -8 -11 -28 -25 -44 -14 -17 -25 -35 -25
-41 0 -6 -4 -11 -9 -11 -5 0 -12 -8 -16 -19 -3 -10 -14 -29 -25 -41 -10 -12
-21 -27 -23 -33 -3 -9 -78 -12 -270 -13 l-267 0 0 513 0 513 -254 0 c-140 0
-257 -3 -259 -7z"/>
<path d="M3747 9283 c-3 -3 -43 -7 -89 -8 -75 -3 -124 -7 -213 -20 -16 -2 -66
-11 -110 -20 -44 -10 -87 -19 -95 -20 -8 -2 -15 -4 -15 -5 0 -1 -7 -3 -15 -5
-8 -2 -25 -6 -37 -9 -13 -3 -32 -8 -42 -10 -11 -3 -29 -10 -40 -16 -12 -6 -21
-8 -21 -5 0 4 -42 -10 -115 -40 -11 -4 -27 -9 -35 -11 -9 -2 -43 -15 -75 -30
-71 -31 -108 -47 -115 -49 -16 -4 -187 -89 -220 -110 -22 -14 -40 -23 -40 -19
0 3 -12 -3 -28 -13 -44 -29 -65 -42 -107 -64 -22 -12 -53 -31 -70 -43 -16 -12
-42 -28 -57 -35 -15 -8 -37 -23 -48 -33 -11 -10 -20 -16 -20 -12 0 4 -8 0 -17
-8 -10 -8 -63 -46 -118 -83 -55 -38 -102 -71 -105 -75 -3 -3 -48 -38 -100 -77
-128 -97 -273 -218 -434 -363 -98 -89 -199 -194 -321 -334 -28 -33 -85 -102
-148 -181 -110 -139 -286 -402 -389 -580 -97 -167 -189 -345 -180 -345 4 0 2
-4 -3 -8 -10 -6 -30 -48 -87 -182 -11 -25 -26 -58 -33 -75 -7 -16 -23 -59 -35
-95 -11 -36 -25 -74 -29 -85 -27 -60 -89 -296 -107 -405 -3 -14 -6 -34 -8 -45
-17 -88 -21 -155 -21 -320 0 -214 4 -244 40 -369 32 -109 63 -179 120 -267 44
-68 185 -219 205 -219 6 0 13 -7 16 -15 4 -8 11 -15 16 -15 5 0 22 -8 36 -19
57 -40 247 -126 302 -137 8 -1 43 -9 77 -18 82 -21 109 -26 223 -43 82 -12
571 -9 635 4 33 7 75 15 94 18 18 3 68 15 110 27 42 11 82 21 89 21 6 0 12 4
12 9 0 5 4 7 10 3 5 -3 17 -1 27 4 10 5 59 24 108 42 132 47 386 164 393 182
2 4 12 7 23 7 10 0 19 5 19 10 0 6 4 10 9 10 9 0 87 46 159 92 15 10 34 21 42
25 8 4 24 15 34 25 11 10 24 18 28 18 5 0 14 5 21 10 7 6 50 38 96 71 46 34
89 65 95 70 6 5 31 25 56 45 50 40 67 54 123 103 l38 34 -7 -29 c-4 -16 -9
-33 -12 -38 -7 -12 -15 -120 -15 -191 1 -106 25 -212 68 -295 42 -80 155 -188
235 -224 36 -16 75 -33 86 -39 47 -21 234 -29 329 -14 66 10 186 44 241 68 24
10 45 18 47 18 15 -1 334 155 357 176 8 7 22 15 30 17 8 2 17 6 20 9 3 3 50
35 105 71 55 37 109 74 120 82 21 17 128 96 130 96 0 0 0 -41 -1 -90 -1 -50 2
-93 7 -96 5 -3 9 -16 9 -28 0 -32 50 -127 94 -180 39 -47 120 -105 171 -123
17 -6 39 -14 50 -19 36 -13 49 -15 140 -19 77 -3 121 1 205 19 8 2 22 6 30 9
39 15 146 47 154 46 5 0 12 4 15 9 3 5 29 21 56 34 76 37 118 63 217 131 116
79 128 88 154 112 12 11 47 40 77 65 68 55 343 332 417 419 30 36 62 72 70 81
9 8 29 33 44 53 33 43 48 43 18 0 -17 -24 -234 -375 -281 -454 -9 -15 -36 -60
-61 -101 -25 -40 -49 -81 -55 -90 -62 -104 -100 -164 -107 -166 -4 -2 -8 -9
-8 -16 0 -7 -14 -31 -31 -54 -17 -23 -28 -45 -26 -49 3 -5 130 -8 284 -8 l278
1 31 55 c31 53 63 110 100 179 11 19 21 37 24 40 3 3 10 14 16 25 6 11 23 41
37 68 15 26 39 68 54 95 14 26 31 56 37 67 6 11 13 22 16 25 3 3 10 14 16 25
76 141 126 225 135 231 5 3 7 10 4 15 -4 5 -1 9 4 9 6 0 11 7 11 15 0 8 5 15
10 15 6 0 10 6 10 13 0 6 18 40 40 75 22 34 40 65 40 68 0 2 12 23 27 47 15
23 32 51 38 62 9 18 88 150 118 200 7 11 27 43 45 71 17 28 32 56 32 63 0 6 5
11 10 11 6 0 10 7 10 15 0 8 4 15 9 15 5 0 13 10 17 23 4 12 17 36 30 53 13
17 24 35 24 41 0 5 9 18 20 28 11 10 20 24 20 31 0 7 3 14 8 16 4 2 26 32 49
68 24 36 51 75 60 86 10 10 36 42 58 69 65 81 164 172 250 230 44 30 86 55 93
55 6 0 12 4 12 9 0 6 67 40 110 56 3 1 12 5 20 8 111 47 335 67 387 34 7 -5
22 -10 33 -12 39 -8 106 -97 105 -142 -1 -28 -1 -28 -72 -7 -37 11 -74 14
-107 11 -52 -6 -106 -26 -106 -39 0 -5 -6 -8 -14 -8 -8 0 -18 -9 -21 -20 -3
-11 -10 -20 -14 -20 -13 0 -48 -74 -62 -130 -19 -82 -13 -154 18 -203 30 -48
60 -77 80 -77 7 0 13 -4 13 -8 0 -22 114 -33 185 -18 105 23 282 118 367 199
10 9 22 17 26 17 4 0 14 9 22 20 8 11 18 20 22 20 10 0 248 238 305 306 23 27
58 67 77 89 20 22 38 48 42 58 3 9 10 17 15 17 12 0 -8 -39 -139 -266 -59
-104 -111 -196 -115 -204 -4 -8 -13 -24 -20 -35 -19 -32 -107 -185 -140 -245
-16 -30 -38 -67 -49 -82 -10 -14 -18 -28 -18 -31 0 -4 -112 -203 -156 -277 -8
-14 -37 -65 -65 -115 -27 -49 -54 -97 -60 -105 -19 -29 -169 -302 -169 -307 0
-3 -10 -22 -22 -42 -13 -20 -23 -38 -24 -41 0 -3 -7 -18 -14 -35 -7 -16 -14
-34 -15 -40 -2 -5 -10 -32 -20 -60 -9 -27 -18 -84 -19 -125 -6 -174 83 -286
268 -334 70 -18 242 -18 326 1 36 8 79 17 95 19 17 3 34 10 40 15 5 5 18 9 29
9 45 0 290 133 380 206 17 14 38 31 46 37 54 41 217 175 235 192 11 11 35 32
53 46 103 83 540 508 630 612 17 21 32 32 32 24 0 -7 -4 -17 -9 -22 -9 -11
-58 -99 -100 -180 -14 -27 -28 -52 -31 -55 -7 -7 -81 -159 -115 -235 -51 -117
-62 -146 -79 -212 -35 -137 -37 -233 -5 -318 26 -70 97 -146 166 -178 71 -32
250 -36 353 -8 41 12 84 23 95 26 39 9 226 106 274 142 26 18 155 125 172 142
10 9 52 48 95 86 221 199 456 434 569 570 69 82 80 94 72 75 -19 -48 -70 -211
-77 -250 -5 -25 -12 -56 -15 -70 -17 -81 1 -310 26 -326 5 -3 9 -13 9 -23 0
-54 148 -231 226 -271 16 -8 31 -17 34 -20 7 -8 101 -48 130 -56 97 -28 315
-39 410 -21 14 2 41 8 60 11 19 4 42 8 50 10 8 1 42 10 75 20 33 10 65 19 70
21 6 1 17 5 25 8 14 5 89 30 100 32 3 1 16 6 30 12 14 6 51 20 83 32 32 11 77
31 100 43 23 12 48 23 56 24 8 2 17 6 20 11 3 4 22 16 41 25 47 23 134 72 140
78 3 3 28 19 55 35 28 15 52 31 55 35 9 12 101 70 111 70 5 0 9 4 9 10 0 5 12
16 28 24 47 25 432 330 522 415 15 14 72 66 126 116 170 154 625 614 709 717
l27 33 -27 -50 c-46 -85 -79 -139 -92 -153 -7 -7 -13 -18 -13 -23 0 -5 -12
-28 -27 -52 -37 -58 -61 -97 -75 -127 -7 -14 -15 -27 -19 -30 -3 -3 -17 -25
-31 -50 -14 -25 -82 -140 -152 -257 -69 -116 -126 -216 -126 -222 0 -5 -3 -11
-8 -13 -7 -3 -144 -232 -209 -348 -14 -25 -32 -52 -39 -61 -8 -8 -14 -21 -14
-27 0 -6 -6 -17 -12 -24 -7 -8 -19 -24 -26 -37 -8 -13 -22 -38 -32 -55 -9 -17
-31 -55 -49 -84 -17 -29 -31 -57 -31 -62 0 -6 -4 -10 -8 -10 -4 0 -15 -15 -23
-33 l-15 -33 253 1 c138 0 254 3 256 5 4 4 128 211 177 295 10 17 41 68 69
115 28 47 56 97 62 113 6 15 14 27 19 27 4 0 11 8 14 18 3 9 12 26 19 37 10
17 57 96 139 235 83 141 232 386 237 390 4 3 12 16 19 30 15 31 23 44 90 143
28 43 52 81 52 84 0 7 126 170 169 217 57 63 173 177 222 218 120 102 251 198
269 198 4 0 10 4 12 9 8 20 232 144 242 134 3 -4 6 -2 6 4 0 6 8 13 18 16 9 3
49 16 87 30 115 42 200 50 256 25 42 -19 46 -39 6 -37 -58 2 -111 -12 -147
-40 -39 -31 -91 -102 -84 -113 3 -5 1 -8 -4 -8 -11 0 -13 -10 -14 -95 -2 -79
3 -135 12 -135 3 0 14 -15 24 -34 16 -31 65 -75 83 -77 5 -1 17 -6 28 -12 48
-26 184 -23 201 4 3 5 9 7 13 4 10 -6 77 57 113 106 66 89 85 262 39 353 -14
26 -38 61 -54 77 -34 37 -116 76 -171 83 -21 3 -41 7 -44 10 -3 3 -11 1 -19
-5 -7 -6 -13 -7 -13 -2 0 9 -36 9 -77 -1 -13 -4 -32 -8 -44 -11 -60 -13 -239
-94 -336 -151 -126 -75 -168 -102 -248 -159 -49 -35 -98 -70 -109 -77 -48 -34
-181 -141 -184 -149 -2 -5 -8 -9 -14 -9 -6 0 -17 -8 -24 -17 -12 -16 -13 -16
-14 -1 0 9 3 18 8 20 6 3 71 113 196 333 15 27 43 76 62 108 19 32 34 62 34
68 0 5 5 9 10 9 6 0 10 7 10 15 0 13 -35 15 -253 15 -241 0 -253 -1 -270 -20
-9 -11 -17 -22 -17 -25 0 -5 -58 -102 -72 -120 -4 -5 -36 -53 -70 -105 -35
-52 -68 -101 -74 -107 -7 -7 -22 -28 -34 -48 -12 -19 -25 -35 -30 -35 -5 0
-11 -8 -14 -18 -4 -10 -14 -27 -24 -38 -9 -10 -33 -39 -52 -64 -40 -52 -61
-78 -75 -94 -5 -6 -32 -38 -60 -71 -27 -33 -54 -65 -60 -71 -5 -6 -46 -51 -90
-99 -144 -159 -408 -418 -561 -550 -25 -22 -58 -51 -73 -64 -14 -13 -42 -35
-61 -50 -19 -14 -39 -31 -45 -37 -15 -17 -303 -232 -328 -245 -12 -7 -24 -15
-27 -18 -15 -20 -275 -177 -370 -225 -30 -15 -62 -31 -70 -35 -71 -38 -86 -45
-90 -44 -6 1 -27 -7 -84 -31 -35 -15 -131 -42 -181 -52 -11 -2 -31 -6 -45 -9
-26 -6 -210 -7 -245 -1 -49 7 -93 20 -135 39 -45 20 -56 29 -105 77 -29 28
-71 109 -81 155 -10 50 -13 187 -4 235 4 25 11 61 14 80 3 19 20 82 38 139
l33 103 140 4 c126 3 180 7 225 17 8 2 38 8 65 12 57 10 64 12 68 15 2 2 18 5
58 13 53 10 291 94 379 134 50 22 202 99 238 120 71 41 188 116 202 129 8 8
40 33 70 56 178 135 289 273 371 463 22 52 29 165 14 230 -3 17 -7 36 -7 43
-1 6 -6 12 -11 12 -6 0 -7 3 -4 7 9 8 -38 91 -67 119 -82 79 -227 127 -386
127 -56 0 -169 -11 -179 -18 -4 -2 -26 -6 -50 -10 -42 -6 -185 -50 -246 -76
-16 -7 -32 -13 -35 -14 -43 -10 -339 -172 -368 -202 -7 -7 -20 -13 -28 -13 -8
0 -14 -3 -14 -7 0 -5 -17 -19 -38 -33 -135 -90 -421 -352 -542 -499 -25 -30
-50 -59 -55 -65 -13 -13 -114 -157 -170 -241 -22 -33 -44 -65 -50 -72 -5 -6
-21 -26 -35 -44 -159 -211 -667 -731 -840 -860 -40 -30 -160 -104 -175 -109
-5 -1 -21 -7 -35 -12 -14 -5 -50 -14 -81 -20 -203 -36 -283 144 -178 397 16
40 43 93 59 119 17 26 30 51 30 56 0 5 6 15 13 22 6 7 19 27 28 43 9 17 36 64
60 105 24 41 44 77 44 80 0 3 19 37 41 75 23 39 47 81 54 95 7 14 16 27 19 30
3 3 14 21 25 40 58 111 91 166 100 172 7 5 7 8 1 8 -7 0 -7 3 0 8 6 4 19 25
31 47 26 49 101 181 123 215 8 14 14 28 13 33 -1 4 2 7 7 7 5 0 11 8 14 18 3
9 19 40 36 67 16 28 42 72 56 99 43 79 50 91 55 96 10 10 41 65 47 83 3 9 10
17 15 17 5 0 7 4 3 9 -3 5 0 15 7 23 7 7 22 31 33 53 11 22 23 42 26 45 3 3
21 34 40 70 19 35 40 71 48 80 13 13 -9 15 -209 18 l-224 2 -23 -26 c-12 -15
-25 -35 -28 -45 -4 -11 -11 -19 -16 -19 -5 0 -9 -4 -9 -9 0 -12 -120 -204
-132 -212 -6 -3 -9 -9 -9 -13 1 -9 -71 -120 -81 -124 -4 -2 -8 -9 -8 -16 0 -7
-9 -24 -20 -37 -12 -12 -45 -59 -75 -104 -30 -44 -95 -134 -144 -200 -50 -66
-98 -131 -108 -144 -10 -13 -22 -29 -28 -35 -5 -6 -39 -47 -75 -91 -60 -74
-92 -112 -145 -171 -12 -12 -50 -55 -85 -94 -132 -146 -414 -414 -494 -469
-12 -8 -23 -18 -26 -22 -3 -3 -72 -57 -155 -118 -82 -61 -155 -116 -162 -121
-7 -6 -14 -10 -17 -10 -3 0 -27 -13 -53 -28 -26 -15 -64 -34 -83 -42 -19 -7
-53 -21 -75 -31 -84 -36 -230 -44 -289 -16 -48 23 -69 43 -90 84 -42 83 5 259
110 413 17 25 34 55 38 68 4 12 12 22 17 22 5 0 9 4 9 9 0 5 32 64 72 132 39
68 101 176 138 239 174 300 260 449 285 495 15 28 36 62 46 77 11 14 19 31 19
37 0 6 5 11 10 11 6 0 10 5 10 11 0 5 24 51 54 102 30 51 63 108 74 127 11 19
52 91 92 160 40 69 84 144 97 167 l24 42 126 3 c69 2 127 0 130 -5 2 -4 9 -5
14 -1 17 10 59 12 65 2 3 -4 10 -6 15 -2 6 3 51 6 101 6 89 0 90 0 123 34 18
19 30 35 27 35 -4 1 -124 3 -267 4 -143 2 -263 3 -267 4 -7 1 85 167 103 186
5 5 9 17 9 26 0 10 4 19 8 21 4 2 19 23 33 48 14 25 35 61 46 80 11 19 35 62
53 95 18 33 51 92 73 130 22 39 52 91 66 117 14 26 61 109 103 184 43 76 76
139 74 141 -4 4 -65 5 -292 4 l-191 -1 -27 -47 c-14 -27 -39 -69 -54 -94 -15
-25 -53 -89 -85 -143 -32 -54 -93 -150 -135 -214 -43 -65 -79 -122 -82 -127
-8 -15 -93 -139 -99 -145 -4 -3 -15 -18 -25 -35 -33 -52 -177 -243 -207 -275
-9 -10 -21 -25 -25 -33 -14 -24 -111 -134 -204 -232 -99 -104 -159 -157 -336
-294 -29 -23 -177 -101 -182 -96 -2 1 7 20 18 41 39 68 56 213 36 301 -15 67
-104 183 -140 183 -9 0 -16 5 -16 10 0 6 -8 10 -18 10 -10 0 -22 3 -26 7 -3 4
-12 8 -19 10 -100 23 -136 23 -287 -3 -82 -14 -264 -89 -335 -138 -94 -65
-172 -123 -183 -136 -20 -23 4 23 44 88 19 29 34 54 34 57 0 4 63 108 70 115
9 9 40 68 40 77 0 8 -477 10 -483 2 -16 -20 -67 -111 -67 -119 0 -6 -4 -10
-10 -10 -5 0 -10 -4 -10 -10 0 -5 -28 -56 -63 -112 -35 -57 -70 -114 -78 -127
-8 -14 -17 -30 -21 -35 -5 -6 -62 -92 -127 -192 -66 -99 -126 -188 -135 -197
-9 -8 -16 -18 -16 -21 0 -9 -132 -191 -142 -194 -4 -2 -8 -8 -8 -13 0 -11 -69
-103 -81 -107 -5 -2 -9 -10 -9 -17 0 -7 -3 -15 -7 -17 -11 -4 -93 -105 -93
-114 0 -4 -6 -12 -13 -18 -8 -6 -43 -47 -78 -91 -35 -43 -71 -86 -79 -95 -8
-9 -46 -51 -85 -95 -87 -99 -274 -285 -344 -345 -29 -25 -67 -57 -84 -73 -43
-37 -189 -137 -257 -174 -126 -70 -284 -106 -371 -83 -55 15 -117 76 -133 131
-30 101 -3 234 82 392 60 112 165 291 179 305 7 7 13 18 13 23 0 5 17 37 38
71 21 35 41 70 45 78 4 8 16 29 27 45 11 17 23 37 27 45 4 7 25 43 46 80 64
104 98 164 104 183 3 9 9 17 14 17 5 0 9 4 9 10 0 5 24 49 54 98 29 49 57 99
60 110 4 12 11 22 15 22 4 0 18 23 31 50 13 28 27 50 32 50 4 0 8 4 8 9 0 5
20 44 45 85 25 42 45 81 45 86 0 6 3 10 8 10 4 0 12 10 18 23 18 38 66 121 85
149 11 14 19 28 19 31 0 3 18 35 40 71 22 36 40 70 40 75 0 5 6 12 13 14 6 3
-101 5 -240 5 -221 -1 -252 -3 -257 -17 -3 -9 -24 -45 -46 -80 -22 -34 -40
-65 -40 -68 0 -3 -13 -28 -30 -54 -16 -27 -26 -49 -22 -49 4 0 2 -4 -3 -8 -6
-4 -31 -46 -55 -94 -25 -49 -49 -88 -53 -88 -5 0 -5 5 -2 10 12 20 6 166 -9
207 -8 23 -12 43 -10 46 9 8 -57 124 -89 157 -61 63 -148 108 -242 126 -79 14
-107 17 -205 18 -97 1 -189 -6 -250 -19 -14 -2 -38 -7 -55 -11 -16 -3 -46 -10
-65 -16 -51 -16 -60 -18 -64 -15 -1 1 -9 -3 -17 -9 -8 -6 -26 -14 -41 -18 -24
-6 -213 -95 -285 -135 -47 -26 -163 -102 -198 -128 -16 -13 -35 -27 -40 -31
-44 -32 -132 -99 -141 -107 -6 -5 -42 -37 -80 -70 -158 -138 -319 -311 -477
-515 -36 -46 -117 -160 -117 -165 0 -3 -8 -14 -18 -25 -10 -11 -60 -92 -112
-181 -118 -200 -127 -211 -360 -399 -77 -62 -138 -106 -207 -151 -37 -24 -69
-47 -71 -51 -2 -5 -9 -8 -16 -8 -7 0 -21 -8 -32 -17 -10 -10 -49 -34 -87 -53
-37 -19 -67 -38 -67 -41 0 -4 -12 -10 -27 -14 -15 -3 -39 -15 -54 -26 -15 -10
-29 -19 -32 -19 -3 0 -38 -15 -79 -34 -64 -29 -100 -45 -118 -51 -3 -1 -12 -5
-20 -8 -168 -70 -406 -128 -580 -142 -95 -8 -290 -5 -290 4 0 3 -15 6 -32 6
-53 1 -137 22 -216 54 -263 106 -458 439 -488 836 -6 69 -5 251 1 310 11 122
32 248 60 373 3 12 7 32 10 44 10 45 107 353 115 363 4 6 10 22 14 37 6 28
103 258 161 383 19 42 35 81 35 86 0 5 4 9 9 9 5 0 15 16 21 36 9 28 214 350
253 399 4 6 46 64 93 130 47 66 89 122 95 123 5 2 9 8 9 13 0 11 113 158 219
284 134 160 217 251 362 395 122 122 204 196 319 289 25 20 47 38 50 41 19 20
161 120 170 120 5 0 10 4 10 8 0 5 16 17 35 28 19 10 35 22 35 26 0 5 3 7 8 6
4 -1 33 15 65 36 182 118 450 235 670 292 4 1 8 2 10 4 3 3 57 14 122 25 11 2
20 4 20 5 0 1 9 3 20 5 174 27 363 25 490 -5 28 -7 55 -13 60 -14 6 -1 16 -5
23 -9 6 -5 12 -6 12 -3 0 3 16 -3 35 -14 20 -11 40 -20 46 -20 15 0 137 -82
188 -126 97 -85 189 -235 240 -390 31 -95 44 -151 45 -196 1 -16 4 -28 7 -28
3 0 5 -10 6 -22 2 -106 3 -109 17 -96 8 7 13 15 13 18 -1 4 29 57 126 220 107
181 363 533 430 593 25 22 21 21 -45 -2 -63 -23 -153 -50 -188 -55 -14 -3 -25
-5 -25 -6 0 -6 -189 -30 -272 -34 -41 -2 -157 12 -202 25 -8 2 -33 14 -55 26
-208 111 -328 159 -443 176 -17 3 -35 7 -40 10 -12 7 -118 19 -205 22 -42 1
-80 5 -86 9 -5 3 -12 3 -15 -1z m1784 -2463 c96 -23 170 -74 219 -150 81 -127
91 -291 28 -475 -21 -60 -173 -366 -229 -460 -16 -27 -35 -60 -41 -72 -6 -13
-15 -23 -20 -23 -4 0 -8 -6 -8 -14 0 -7 -7 -19 -15 -26 -9 -7 -13 -15 -11 -17
3 -3 0 -10 -5 -17 -5 -6 -42 -56 -81 -111 -76 -109 -193 -256 -253 -320 -138
-149 -260 -265 -336 -321 -18 -13 -35 -28 -38 -32 -14 -20 -266 -177 -273
-170 -2 2 -19 -7 -38 -18 -35 -21 -164 -73 -198 -79 -9 -2 -18 -4 -19 -5 -2
-2 -7 -4 -13 -5 -5 -1 -11 -3 -12 -4 -5 -4 -61 -13 -85 -14 -13 0 -23 -3 -23
-6 0 -8 -93 -5 -149 4 -100 15 -191 82 -232 172 -25 53 -26 57 -36 123 -12 81
-7 186 12 268 3 12 7 32 10 44 2 12 12 44 22 72 9 28 18 53 18 56 1 3 6 16 12
30 6 14 19 45 29 70 26 66 159 325 205 399 21 34 39 65 39 67 0 3 5 10 10 17
6 7 30 42 54 79 47 71 131 190 156 222 96 119 278 299 380 376 19 14 45 34 59
46 69 55 207 140 316 193 140 68 204 90 310 107 22 3 41 7 42 8 8 7 148 -3
194 -14z m8723 -62 c85 -25 129 -103 128 -226 -1 -40 -3 -76 -6 -81 -3 -4 -8
-22 -11 -40 -3 -18 -7 -38 -8 -44 -1 -7 -6 -15 -10 -18 -4 -3 -9 -16 -10 -27
-1 -12 -5 -22 -9 -22 -4 0 -7 -3 -6 -7 4 -23 -78 -166 -155 -268 -63 -83 -193
-218 -261 -270 -21 -16 -44 -35 -50 -40 -26 -25 -164 -111 -239 -150 -159 -82
-342 -137 -497 -151 -68 -5 -160 -7 -165 -3 -5 6 149 314 168 338 7 9 19 30
27 46 8 17 19 35 23 40 4 6 31 46 59 90 29 44 56 82 60 83 4 2 8 8 8 13 0 14
161 221 239 308 109 121 244 249 301 287 22 15 40 31 40 35 0 5 6 9 14 9 8 0
21 6 28 13 22 21 88 59 88 50 0 -4 4 -3 8 3 23 35 161 54 236 32z"/>
<path d="M12244 7753 c-65 -22 -124 -86 -141 -153 -37 -142 78 -284 221 -275
123 8 209 99 208 220 -1 151 -147 257 -288 208z"/>
</g>
</svg>
